<svg xmlns="http://www.w3.org/2000/svg" xmlns:xlink="http://www.w3.org/1999/xlink" width="830" height="465" viewBox="0 0 830 465"><rect width="100%" height="100%" fill="#DDDDDD"/><path d="M177.37 233.28L187.12 233.28Q190.71 233.28 193.38 232.38Q196.05 231.48 197.82 229.81Q199.59 228.14 200.46 225.73Q201.33 223.33 201.33 220.38L201.33 220.38Q201.33 217.56 200.46 215.28Q199.59 213.00 197.84 211.40Q196.10 209.80 193.43 208.95Q190.76 208.10 187.12 208.10L187.12 208.10L177.37 208.10L177.37 233.28ZM164.33 198.02L187.12 198.02Q194.16 198.02 199.30 199.67Q204.44 201.31 207.78 204.27Q211.13 207.23 212.75 211.35Q214.38 215.48 214.38 220.38L214.38 220.38Q214.38 225.47 212.68 229.71Q210.98 233.96 207.59 237.01Q204.19 240.07 199.08 241.76Q193.96 243.46 187.12 243.46L187.12 243.46L177.37 243.46L177.37 268.15L164.33 268.15L164.33 198.02ZM222.62 196.08L234.60 196.08L234.60 268.15L222.62 268.15L222.62 196.08ZM272.87 255.30L272.87 246.90Q267.68 247.15 264.14 247.80Q260.60 248.46 258.47 249.48Q256.33 250.49 255.41 251.85Q254.49 253.21 254.49 254.81L254.49 254.81Q254.49 257.96 256.36 259.32Q258.22 260.68 261.23 260.68L261.23 260.68Q264.92 260.68 267.61 259.34Q270.30 258.01 272.87 255.30L272.87 255.30ZM247.55 229.15L245.42 225.32Q254.00 217.47 266.08 217.47L266.08 217.47Q270.45 217.47 273.89 218.90Q277.33 220.33 279.71 222.87Q282.09 225.42 283.32 228.96Q284.56 232.50 284.56 236.72L284.56 236.72L284.56 268.15L279.13 268.15Q277.43 268.15 276.51 267.64Q275.59 267.13 275.05 265.58L275.05 265.58L273.99 261.99Q272.09 263.69 270.30 264.97Q268.51 266.26 266.57 267.13Q264.63 268.00 262.42 268.46Q260.21 268.92 257.54 268.92L257.54 268.92Q254.39 268.92 251.72 268.07Q249.06 267.23 247.12 265.53Q245.18 263.83 244.11 261.31Q243.04 258.79 243.04 255.44L243.04 255.44Q243.04 253.55 243.67 251.68Q244.30 249.81 245.73 248.12Q247.17 246.42 249.45 244.92Q251.72 243.41 255.05 242.30Q258.37 241.18 262.78 240.48Q267.20 239.78 272.87 239.63L272.87 239.63L272.87 236.72Q272.87 231.72 270.74 229.32Q268.60 226.92 264.58 226.92L264.58 226.92Q261.67 226.92 259.75 227.60Q257.84 228.28 256.38 229.13Q254.93 229.98 253.74 230.66Q252.55 231.34 251.09 231.34L251.09 231.34Q249.83 231.34 248.96 230.68Q248.09 230.03 247.55 229.15L247.55 229.15ZM334.61 224.55L331.46 228.91Q330.93 229.59 330.42 229.98Q329.91 230.37 328.94 230.37L328.94 230.37Q328.02 230.37 327.14 229.81Q326.27 229.25 325.06 228.55Q323.84 227.84 322.17 227.29Q320.50 226.73 318.02 226.73L318.02 226.73Q314.87 226.73 312.50 227.87Q310.12 229.01 308.54 231.14Q306.97 233.28 306.19 236.31Q305.41 239.34 305.41 243.17L305.41 243.17Q305.41 247.15 306.26 250.25Q307.11 253.36 308.71 255.46Q310.31 257.57 312.59 258.67Q314.87 259.76 317.73 259.76L317.73 259.76Q320.59 259.76 322.37 259.05Q324.14 258.35 325.35 257.50Q326.56 256.65 327.46 255.95Q328.35 255.25 329.47 255.25L329.47 255.25Q330.93 255.25 331.65 256.36L331.65 256.36L335.10 260.73Q333.11 263.06 330.78 264.63Q328.45 266.21 325.95 267.15Q323.46 268.10 320.81 268.49Q318.17 268.88 315.55 268.88L315.55 268.88Q310.94 268.88 306.87 267.15Q302.80 265.43 299.74 262.13Q296.68 258.84 294.91 254.06Q293.14 249.28 293.14 243.17L293.14 243.17Q293.14 237.69 294.72 233.01Q296.30 228.33 299.35 224.91Q302.41 221.49 306.92 219.55Q311.43 217.61 317.30 217.61L317.30 217.61Q322.87 217.61 327.07 219.41Q331.26 221.20 334.61 224.55L334.61 224.55ZM352.02 237.54L374.62 237.54Q374.62 235.22 373.97 233.15Q373.31 231.09 372.00 229.54Q370.70 227.99 368.68 227.09Q366.67 226.20 364.00 226.20L364.00 226.20Q358.81 226.20 355.83 229.15Q352.85 232.11 352.02 237.54L352.02 237.54ZM382.58 244.77L351.78 244.77Q352.07 248.60 353.14 251.39Q354.21 254.18 355.95 256.00Q357.70 257.82 360.10 258.71Q362.50 259.61 365.41 259.61L365.41 259.61Q368.32 259.61 370.43 258.93Q372.54 258.25 374.11 257.43Q375.69 256.60 376.88 255.93Q378.07 255.25 379.18 255.25L379.18 255.25Q380.69 255.25 381.41 256.36L381.41 256.36L384.86 260.73Q382.87 263.06 380.40 264.63Q377.92 266.21 375.23 267.15Q372.54 268.10 369.75 268.49Q366.96 268.88 364.34 268.88L364.34 268.88Q359.15 268.88 354.69 267.15Q350.23 265.43 346.93 262.06Q343.63 258.69 341.74 253.72Q339.85 248.75 339.85 242.20L339.85 242.20Q339.85 237.11 341.50 232.62Q343.15 228.14 346.23 224.81Q349.31 221.49 353.74 219.55Q358.18 217.61 363.76 217.61L363.76 217.61Q368.46 217.61 372.44 219.11Q376.42 220.62 379.28 223.50Q382.14 226.39 383.77 230.58Q385.39 234.78 385.39 240.16L385.39 240.16Q385.39 242.88 384.81 243.82Q384.23 244.77 382.58 244.77L382.58 244.77ZM406.34 196.08L406.34 223.72Q409.25 221.01 412.74 219.31Q416.24 217.61 420.94 217.61L420.94 217.61Q425.02 217.61 428.17 218.99Q431.32 220.38 433.43 222.87Q435.54 225.37 436.63 228.84Q437.72 232.31 437.72 236.48L437.72 236.48L437.72 268.15L425.74 268.15L425.74 236.48Q425.74 231.92 423.66 229.42Q421.57 226.92 417.30 226.92L417.30 226.92Q414.20 226.92 411.48 228.33Q408.77 229.74 406.34 232.16L406.34 232.16L406.34 268.15L394.36 268.15L394.36 196.08L406.34 196.08ZM471.09 217.61L471.09 217.61Q476.62 217.61 481.15 219.41Q485.69 221.20 488.91 224.50Q492.14 227.80 493.89 232.55Q495.63 237.30 495.63 243.17L495.63 243.17Q495.63 249.09 493.89 253.84Q492.14 258.59 488.91 261.94Q485.69 265.29 481.15 267.08Q476.62 268.88 471.09 268.88L471.09 268.88Q465.51 268.88 460.95 267.08Q456.39 265.29 453.17 261.94Q449.94 258.59 448.17 253.84Q446.40 249.09 446.40 243.17L446.40 243.17Q446.40 237.30 448.17 232.55Q449.94 227.80 453.17 224.50Q456.39 221.20 460.95 219.41Q465.51 217.61 471.09 217.61ZM471.09 259.66L471.09 259.66Q477.30 259.66 480.28 255.49Q483.26 251.32 483.26 243.27L483.26 243.27Q483.26 235.22 480.28 231.00Q477.30 226.78 471.09 226.78L471.09 226.78Q464.79 226.78 461.75 231.02Q458.72 235.26 458.72 243.27L458.72 243.27Q458.72 251.27 461.75 255.46Q464.79 259.66 471.09 259.66ZM504.94 196.08L516.92 196.08L516.92 268.15L504.94 268.15L504.94 196.08ZM560.14 253.40L560.14 231.09Q558.10 228.62 555.70 227.60Q553.30 226.58 550.53 226.58L550.53 226.58Q547.82 226.58 545.63 227.60Q543.45 228.62 541.90 230.68Q540.35 232.74 539.52 235.92Q538.70 239.10 538.70 243.41L538.70 243.41Q538.70 247.78 539.40 250.81Q540.11 253.84 541.42 255.76Q542.72 257.67 544.62 258.52Q546.51 259.37 548.84 259.37L548.84 259.37Q552.57 259.37 555.19 257.82Q557.81 256.27 560.14 253.40L560.14 253.40ZM560.14 196.08L572.12 196.08L572.12 268.15L564.79 268.15Q562.42 268.15 561.79 265.97L561.79 265.97L560.77 261.16Q557.76 264.61 553.86 266.74Q549.95 268.88 544.76 268.88L544.76 268.88Q540.69 268.88 537.29 267.18Q533.90 265.48 531.45 262.25Q529.00 259.03 527.67 254.28Q526.33 249.52 526.33 243.41L526.33 243.41Q526.33 237.88 527.84 233.13Q529.34 228.38 532.15 224.89Q534.96 221.39 538.89 219.43Q542.82 217.47 547.72 217.47L547.72 217.47Q551.89 217.47 554.85 218.77Q557.81 220.08 560.14 222.32L560.14 222.32L560.14 196.08ZM593.41 237.54L616.01 237.54Q616.01 235.22 615.35 233.15Q614.70 231.09 613.39 229.54Q612.08 227.99 610.07 227.09Q608.05 226.20 605.39 226.20L605.39 226.20Q600.20 226.20 597.21 229.15Q594.23 232.11 593.41 237.54L593.41 237.54ZM623.96 244.77L593.16 244.77Q593.46 248.60 594.52 251.39Q595.59 254.18 597.34 256.00Q599.08 257.82 601.48 258.71Q603.88 259.61 606.79 259.61L606.79 259.61Q609.70 259.61 611.81 258.93Q613.92 258.25 615.50 257.43Q617.08 256.60 618.26 255.93Q619.45 255.25 620.57 255.25L620.57 255.25Q622.07 255.25 622.80 256.36L622.80 256.36L626.24 260.73Q624.25 263.06 621.78 264.63Q619.31 266.21 616.61 267.15Q613.92 268.10 611.13 268.49Q608.35 268.88 605.73 268.88L605.73 268.88Q600.54 268.88 596.07 267.15Q591.61 265.43 588.31 262.06Q585.02 258.69 583.13 253.72Q581.23 248.75 581.23 242.20L581.23 242.20Q581.23 237.11 582.88 232.62Q584.53 228.14 587.61 224.81Q590.69 221.49 595.13 219.55Q599.57 217.61 605.14 217.61L605.14 217.61Q609.85 217.61 613.83 219.11Q617.80 220.62 620.66 223.50Q623.53 226.39 625.15 230.58Q626.78 234.78 626.78 240.16L626.78 240.16Q626.78 242.88 626.19 243.82Q625.61 244.77 623.96 244.77L623.96 244.77ZM646.32 221.39L647.05 227.02Q649.38 222.56 652.58 220.01Q655.78 217.47 660.14 217.47L660.14 217.47Q663.59 217.47 665.67 218.97L665.67 218.97L664.90 227.94Q664.65 228.81 664.19 229.18Q663.73 229.54 662.96 229.54L662.96 229.54Q662.23 229.54 660.80 229.30Q659.37 229.06 658.01 229.06L658.01 229.06Q656.02 229.06 654.47 229.64Q652.92 230.22 651.68 231.31Q650.44 232.40 649.50 233.96Q648.55 235.51 647.73 237.50L647.73 237.50L647.73 268.15L635.75 268.15L635.75 218.39L642.78 218.39Q644.62 218.39 645.35 219.04Q646.08 219.70 646.32 221.39L646.32 221.39Z" fill="#999999"/></svg>