<svg xmlns="http://www.w3.org/2000/svg" xmlns:xlink="http://www.w3.org/1999/xlink">
  <symbol viewBox="0 0 24 24" id="phone">
    <path fill="currentColor"
      d="M15.984 18V3.984h-9V18h9zm-4.5 3.984c.844 0 1.5-.656 1.5-1.5s-.656-1.5-1.5-1.5-1.5.656-1.5 1.5.656 1.5 1.5 1.5zm4.032-21C16.875.984 18 2.156 18 3.515v16.969c0 1.359-1.125 2.531-2.484 2.531H7.5c-1.359 0-2.484-1.172-2.484-2.531V3.515C5.016 2.156 6.141.984 7.5.984h8.016z"></path>
  </symbol>
  <symbol viewBox="0 0 24 24" id="tablet">
    <path fill="currentColor"
      d="M18.984 18.984V3h-15v15.984h15zm-7.5 4.032c.844 0 1.5-.656 1.5-1.5s-.656-1.5-1.5-1.5-1.5.656-1.5 1.5.656 1.5 1.5 1.5zM18.516 0A2.5 2.5 0 0 1 21 2.484v19.031a2.5 2.5 0 0 1-2.484 2.484H4.5a2.5 2.5 0 0 1-2.484-2.484V2.484A2.5 2.5 0 0 1 4.5 0h14.016z"></path>
  </symbol>
  <symbol viewBox="0 0 24 24" id="desktop">
    <path fill="currentColor"
      d="M21 14.016V3.985H3v10.031h18zm0-12c1.078 0 2.016.891 2.016 1.969v12c0 1.078-.938 2.016-2.016 2.016h-6.984l1.969 3v.984H8.016v-.984l1.969-3H3.001c-1.078 0-2.016-.938-2.016-2.016v-12c0-1.078.938-1.969 2.016-1.969h18z"></path>
  </symbol>
  <symbol viewBox="0 0 22 22" id="hay">
    <path
      d="m16.995 10.79-2.625-2.5a1.082 1.082 0 0 0-.745-.294c-.28 0-.548.106-.745.294a.98.98 0 0 0-.31.71.98.98 0 0 0 .31.71l.84.79H8.28l.84-.79A.98.98 0 0 0 9.43 9a.98.98 0 0 0-.31-.71 1.082 1.082 0 0 0-.745-.294c-.28 0-.548.106-.745.294l-2.625 2.5a.995.995 0 0 0-.221.33.956.956 0 0 0 0 .76c.05.123.125.235.22.33l2.626 2.5c.097.094.213.168.341.219a1.095 1.095 0 0 0 1.15-.219 1 1 0 0 0 .23-.325.96.96 0 0 0-.23-1.095l-.84-.79h5.438l-.84.79a1 1 0 0 0-.23.325.96.96 0 0 0 .23 1.095 1.095 1.095 0 0 0 1.491 0l2.625-2.5a.995.995 0 0 0 .221-.33.956.956 0 0 0 0-.76.995.995 0 0 0-.22-.33zM1.55 5.5c-.278 0-.546.105-.742.293A.976.976 0 0 0 .5 6.5v10c0 .265.11.52.308.707.196.188.464.293.742.293.278 0 .546-.105.742-.293A.976.976 0 0 0 2.6 16.5v-10c0-.265-.11-.52-.308-.707A1.077 1.077 0 0 0 1.55 5.5zm18.9 0c-.278 0-.546.105-.742.293a.976.976 0 0 0-.308.707v10c0 .265.11.52.308.707.196.188.464.293.742.293.279 0 .546-.105.742-.293a.976.976 0 0 0 .308-.707v-10c0-.265-.11-.52-.308-.707a1.077 1.077 0 0 0-.742-.293z"
      fill="currentColor"></path>
  </symbol>
  <symbol viewBox="0 0 26 26" id="random">
    <path
      d="M19 9c1.125 0 2-.875 2-2 0-1.126-.875-2-2-2-1.126 0-2 .874-2 2 0 1.125.874 2 2 2zm0 11.999c1.125 0 2-.875 2-2s-.875-2-2-2c-1.126 0-2 .875-2 2s.874 2 2 2zm-6-6c1.125 0 2-.874 2-2 0-1.125-.875-2-2-2-1.126 0-2 .875-2 2 0 1.126.874 2 2 2zM7 9c1.125 0 2-.874 2-2 0-1.125-.875-2-2-2s-2 .875-2 2c0 1.126.875 2 2 2zm0 12c1.125 0 2-.875 2-2s-.875-2-2-2-2 .875-2 2 .875 2 2 2zM22.311 1C23.748 1 25 2.25 25 3.688v18.624c0 1.437-1.25 2.688-2.688 2.688H3.687C2.25 25 .999 23.75.999 22.312V3.688C.999 2.25 2.249 1 3.687 1H22.31z"
      fill-rule="nonzero" stroke="currentColor" stroke-width="2" fill="none"></path>
  </symbol>
  <symbol viewBox="0 0 24 24" id="disco-ball">
    <g fill="none" fill-rule="evenodd">
      <path
        d="M21.698 11.973c0-4.892-3.841-9.006-8.795-9.498h-1.471l-.37-.002c-5.286.444-9.244 4.91-8.938 10.072.306 5.162 4.769 9.153 10.072 8.998 5.303-.155 9.512-4.4 9.502-9.57z"
        stroke="currentColor"></path>
      <path
        d="M5.294 8.839h2.009a15.33 15.33 0 0 0-.318 2.314H4.606c.106-.823.318-1.594.688-2.314zm0 6.326c-.37-.72-.582-1.492-.688-2.314h2.38c.052.822.158 1.594.317 2.314h-2.01zm1.11 1.697h1.375c.211.617.475 1.234.793 1.8a7.284 7.284 0 0 1-2.168-1.8zM7.779 7.09H6.404a7.284 7.284 0 0 1 2.168-1.8 10.998 10.998 0 0 0-.793 1.8zm3.278 12.344c-.9-.515-1.534-1.595-1.957-2.572h1.957v2.572zm0-4.27H8.572a15.33 15.33 0 0 1-.318-2.313h2.803v2.314zm0-4.01H8.254a15.33 15.33 0 0 1 .318-2.315h2.485v2.314zm.158-3.91H8.89l.106-.205c.475-1.183 1.163-2.16 1.956-2.623l.264-.154v2.983zm6.292-.154h-1.375a10.998 10.998 0 0 0-.793-1.8 8.9 8.9 0 0 1 2.168 1.8zm-4.653-2.52c.899.463 1.533 1.595 1.903 2.52h-1.903V4.57zm0 14.864v-2.572h1.903c-.37.977-1.004 2.057-1.903 2.572zm2.432-4.27h-2.432v-2.313h2.75c0 .822-.106 1.594-.318 2.314zm-2.432-4.01V8.838h2.432c.212.72.317 1.491.37 2.314h-2.802zm2.485 7.508c.317-.566.582-1.183.793-1.8h1.375a8.9 8.9 0 0 1-2.168 1.8zm3.278-3.497h-2.01l.265-2.314h2.38a8.346 8.346 0 0 1-.635 2.314zm-1.745-4.012c-.053-.823-.105-1.594-.264-2.314h2.009c.317.72.529 1.491.634 2.314h-2.379zM22.488 20.97l-.687-1.234-.74 1.234-1.269.72 1.269.669.74 1.285.687-1.285 1.27-.67-1.27-.72zM3.825.792l-1.428.411L1.023.792l.423 1.389-.423 1.388 1.374-.411 1.428.411-.423-1.388.423-1.389zm.408 19.972-.529-1.028-.581 1.028-1.058.566 1.058.514.581 1.029.53-1.029 1.057-.514-1.058-.566zm17.95-17.891-.581-1.029-.53 1.029-1.057.566 1.058.565.529 1.03.581-1.03 1.058-.565-1.058-.566z"
        fill="currentColor" fill-rule="nonzero"></path>
    </g>
  </symbol>
  <symbol id="close" viewBox="0 0 32 32">
    <path d="M0 0h30v30H0z" fill="none" />
    <path
      d="m2.8.915 13.2 13.2L29.2.914l1.885 1.886L17.885 16l13.2 13.2-1.886 1.885-13.2-13.2-13.198 13.2-1.886-1.886L14.113 16 .915 2.8 2.801.916z" />
  </symbol>
  <symbol id="list" viewBox="0 0 20 17">
    <rect width="20" height="3" fill="currentColor" />
    <rect y="7" width="20" height="3" fill="currentColor" />
    <rect y="14" width="20" height="3" fill="currentColor" />
  </symbol>
  <symbol id="setting" viewBox="0 0 48 48">
    <path
      d="m19.4 44-1-6.3q-.95-.35-2-.95t-1.85-1.25l-5.9 2.7L4 30l5.4-3.95q-.1-.45-.125-1.025Q9.25 24.45 9.25 24q0-.45.025-1.025T9.4 21.95L4 18l4.65-8.2 5.9 2.7q.8-.65 1.85-1.25t2-.9l1-6.35h9.2l1 6.3q.95.35 2.025.925Q32.7 11.8 33.45 12.5l5.9-2.7L44 18l-5.4 3.85q.1.5.125 1.075.025.575.025 1.075t-.025 1.05q-.025.55-.125 1.05L44 30l-4.65 8.2-5.9-2.7q-.8.65-1.825 1.275-1.025.625-2.025.925l-1 6.3ZM24 30.5q2.7 0 4.6-1.9 1.9-1.9 1.9-4.6 0-2.7-1.9-4.6-1.9-1.9-4.6-1.9-2.7 0-4.6 1.9-1.9 1.9-1.9 4.6 0 2.7 1.9 4.6 1.9 1.9 4.6 1.9Zm0-3q-1.45 0-2.475-1.025Q20.5 25.45 20.5 24q0-1.45 1.025-2.475Q22.55 20.5 24 20.5q1.45 0 2.475 1.025Q27.5 22.55 27.5 24q0 1.45-1.025 2.475Q25.45 27.5 24 27.5Zm0-3.5Zm-2.2 17h4.4l.7-5.6q1.65-.4 3.125-1.25T32.7 32.1l5.3 2.3 2-3.6-4.7-3.45q.2-.85.325-1.675.125-.825.125-1.675 0-.85-.1-1.675-.1-.825-.35-1.675L40 17.2l-2-3.6-5.3 2.3q-1.15-1.3-2.6-2.175-1.45-.875-3.2-1.125L26.2 7h-4.4l-.7 5.6q-1.7.35-3.175 1.2-1.475.85-2.625 2.1L10 13.6l-2 3.6 4.7 3.45q-.2.85-.325 1.675-.125.825-.125 1.675 0 .85.125 1.675.125.825.325 1.675L8 30.8l2 3.6 5.3-2.3q1.2 1.2 2.675 2.05Q19.45 35 21.1 35.4Z"
      fill='currentColor' />
  </symbol>
</svg>