<svg width="70" height="70" fill="none" version="1.1" viewBox="0 0 70 70" xmlns="http://www.w3.org/2000/svg">
  <path d="m39.772 22.345c1.2162-1.2192 1.9687-2.9016 1.9687-4.7603 0-3.7225-3.018-6.7404-6.7405-6.7404-2.3534 0-4.4224 1.2082-5.6281 3.0359-0.3203 0.32078-27.153 33.392-27.403 33.772-1.2162 1.2192-1.9687 2.902-1.9687 4.7598 0 3.7229 3.0179 6.7409 6.7404 6.7409 2.3534 0 4.4225-1.2077 5.6282-3.036 0.3203-0.3207 27.152-33.393 27.403-33.772z" fill="#00a1f1"/>
  <path d="m55.297 38.039c1.2197-1.2201 1.9736-2.9045 1.9736-4.7657 0-3.7225-3.0179-6.7404-6.7404-6.7404-2.3544 0-4.4245 1.2091-5.6301 3.0384-0.3228 0.3233-14.416 17.695-14.668 18.078-1.2197 1.2202-1.9737 2.9045-1.9737 4.7652 0 3.723 3.0179 6.741 6.7404 6.741 2.3544 0 4.4245-1.2092 5.6297-3.0385 0.3228-0.3228 14.416-17.695 14.668-18.078z" fill="#f65314"/>
  <path d="m70 17.585c0 3.723-3.0179 6.7404-6.7404 6.7404-3.723 0-6.7404-3.0174-6.7404-6.7404 0-3.7225 3.0174-6.7404 6.7404-6.7404 3.7225 0 6.7404 3.0179 6.7404 6.7404z" fill="#ffbb00"/>
  <path d="m13.481 17.585c0 3.723-3.0179 6.7404-6.7404 6.7404-3.7225 0-6.7404-3.0174-6.7404-6.7404 0-3.7225 3.0179-6.7404 6.7404-6.7404 3.7225 0 6.7404 3.0179 6.7404 6.7404z" fill="#7cbb00"/>
</svg>
