<svg aria-hidden="true" version="1.1" xmlns="http://www.w3.org/2000/svg"
  xmlns:xlink="http://www.w3.org/1999/xlink">
  <symbol id="xpack-ico-logo" viewBox="0 0 138 31">
    <path d="M0 0h138v31H0z" fill="none" />
    <path
      d="m3.5293 0v3.1836c0 1.752 1.4323 3.1719 3.1973 3.1719h22.986a2.81 2.81 0 0 1 2.8203 2.7988v3.0469h-23.061c-5.168-1e-3 -9.3837 4.1273-9.4727 9.2363-0.089 5.258 4.3602 9.5625 9.6602 9.5625h13.857c2.648 0 4.793-2.1308 4.793-4.7578v-1.5977h-18.594c-1.556 0-2.8223-1.499-2.8223-3.043 0-1.545 1.2663-3.0449 2.8223-3.0449h22.816v12.443h6.8965v-21.6c0-5.192-4.2417-9.4004-9.4727-9.4004h-26.428zm52.682 0c-5.257 1.1842e-15 -9.5195 4.2094-9.5195 9.4004v21.6h6.9297v-21.844c0-1.546 1.2709-2.8008 2.8359-2.8008h19.188c1.775-1e-7 3.2129-1.4209 3.2129-3.1719v-3.1836h-22.646zm28.168 0v21.844c0 1.547-1.269 2.8008-2.834 2.8008h-19.191c-1.773 0-3.2109 1.4199-3.2109 3.1719v3.1836h22.646c5.257 0 9.5185-4.2084 9.5195-9.4004v-21.6h-6.9297zm23.664 0c-5.222 1.1842e-15 -9.4727 4.2174-9.4727 9.4004v12.199c0 5.183 4.2517 9.4004 9.4727 9.4004h20.484c5.222 0 9.4727-4.2174 9.4727-9.4004v-12.199c0-5.183-4.2497-9.4004-9.4727-9.4004h-20.484zm0.24414 6.3535h19.996c1.556 0 2.8223 1.2578 2.8223 2.8008v12.691c0 1.543-1.2663 2.7988-2.8223 2.7988h-19.996c-1.556 0-2.8203-1.2558-2.8203-2.7988v-12.691c0-1.543 1.2643-2.7988 2.8203-2.7988v-0.0019532z" />
  </symbol>
</svg>