<svg width="70" height="70" fill="none" version="1.1" viewBox="0 0 70 70" xmlns="http://www.w3.org/2000/svg">
 <path d="m6.7402 10.844c-3.7225 0-6.7402 3.0197-6.7402 6.7422 0 3.723 3.0178 6.7402 6.7402 6.7402 3.7225 0 6.7402-3.0172 6.7402-6.7402 0-3.7225-3.0177-6.7422-6.7402-6.7422zm28.26 0c-2.3534 0-4.4232 1.2094-5.6289 3.0371-0.3203 0.32078-27.152 33.391-27.402 33.771-1.2162 1.2192-1.9688 2.902-1.9688 4.7598 0 3.7229 3.0178 6.7422 6.7402 6.7422 2.3534 0 4.4232-1.2088 5.6289-3.0371 0.3203-0.3207 27.152-33.392 27.402-33.771 1.2162-1.2192 1.9688-2.901 1.9688-4.7598 0-3.7225-3.0177-6.7422-6.7402-6.7422zm28.26 0c-3.723 0-6.7402 3.0197-6.7402 6.7422 0 3.723 3.0172 6.7402 6.7402 6.7402 3.7225 0 6.7402-3.0172 6.7402-6.7402 0-3.7225-3.0177-6.7422-6.7402-6.7422zm-12.729 15.689c-2.3544 0-4.4253 1.2098-5.6309 3.0391-0.3228 0.3233-14.416 17.693-14.668 18.076-1.2197 1.2202-1.9727 2.9049-1.9727 4.7656 0 3.723 3.0177 6.7422 6.7402 6.7422 2.3544 0 4.4237-1.2098 5.6289-3.0391 0.3228-0.3228 14.416-17.695 14.668-18.078 1.2197-1.2201 1.9746-2.9044 1.9746-4.7656 0-3.7225-3.0177-6.7402-6.7402-6.7402z" fill="#f30"/>
</svg>
