<svg width="26" height="15" viewBox="0 0 26 15" fill="none" xmlns="http://www.w3.org/2000/svg">
<path d="M13.0008 0C6.7017 0 1.43471 5.52826 0.132753 7.01429C0.0910079 7.0619 0.0578646 7.11858 0.0352446 7.18107C0.0126246 7.24356 0.000976562 7.31061 0.000976562 7.37833C0.000976562 7.44605 0.0126246 7.5131 0.0352446 7.57559C0.0578646 7.63808 0.0910079 7.69478 0.132753 7.74238C1.43471 9.22841 6.7017 14.7562 13.0008 14.7562C19.2999 14.7562 24.5672 9.22841 25.8692 7.74238C25.9109 7.69478 25.9441 7.63808 25.9667 7.57559C25.9893 7.5131 26.001 7.44605 26.001 7.37833C26.001 7.31061 25.9893 7.24356 25.9667 7.18107C25.9441 7.11858 25.9109 7.0619 25.8692 7.01429C24.5669 5.52826 19.2999 0 13.0008 0ZM13.0008 13.3901C11.4951 13.3901 9.92148 13.0365 8.32379 12.3399C7.01924 11.771 5.69584 10.9751 4.39092 9.96972C3.51883 9.29688 2.68523 8.55987 1.89532 7.76328C1.84762 7.71524 1.80939 7.65597 1.78319 7.58946C1.757 7.52295 1.74344 7.45075 1.74344 7.3777C1.74344 7.30464 1.757 7.23244 1.78319 7.16593C1.80939 7.09942 1.84762 7.04015 1.89532 6.99211C3.89151 4.9806 8.15337 1.3666 12.9997 1.3666C14.5057 1.3666 16.079 1.71977 17.6767 2.41629C18.9816 2.98529 20.3046 3.78119 21.6096 4.78695C22.4817 5.45968 23.3155 6.19654 24.1055 6.99297C24.1532 7.04101 24.1915 7.10028 24.2176 7.16678C24.2438 7.23329 24.2574 7.3055 24.2574 7.37855C24.2574 7.4516 24.2438 7.52381 24.2176 7.59032C24.1915 7.65682 24.1532 7.71609 24.1055 7.76413C22.1086 9.77437 17.8471 13.3901 13.0008 13.3901Z" fill="currentColor"/>
<path d="M12.9975 2.73083C11.7656 2.73083 10.5841 3.22022 9.71303 4.09132C8.84192 4.96243 8.35254 6.1439 8.35254 7.37584C8.35254 8.60777 8.84192 9.78924 9.71303 10.6603C10.5841 11.5314 11.7656 12.0208 12.9975 12.0208C14.2295 12.0208 15.4109 11.5314 16.2821 10.6603C17.1532 9.78924 17.6425 8.60777 17.6425 7.37584C17.6425 6.1439 17.1532 4.96243 16.2821 4.09132C15.4109 3.22022 14.2295 2.73083 12.9975 2.73083ZM15.2713 9.64956C14.9734 9.94905 14.619 10.1865 14.2287 10.3481C13.8384 10.5097 13.42 10.5924 12.9975 10.5912C12.5752 10.5924 12.1567 10.5098 11.7665 10.3482C11.3762 10.1866 11.022 9.9491 10.7242 9.64956C10.4246 9.35166 10.1871 8.99732 10.0254 8.60704C9.86376 8.21676 9.78107 7.79829 9.78217 7.37584C9.781 6.95335 9.86362 6.53483 10.0252 6.14448C10.1869 5.75414 10.4243 5.39973 10.7238 5.10175C11.0216 4.80221 11.3759 4.56474 11.7661 4.40311C12.1564 4.24147 12.5748 4.15888 12.9972 4.16012C13.4196 4.15895 13.8381 4.24157 14.2284 4.4032C14.6187 4.56483 14.973 4.80226 15.2709 5.10175C15.5704 5.39968 15.8078 5.75403 15.9694 6.14431C16.1311 6.5346 16.2137 6.95306 16.2126 7.37548C16.2138 7.79797 16.1312 8.2165 15.9695 8.60685C15.8079 8.9972 15.5705 9.3516 15.2709 9.64956H15.2713Z" fill="currentColor"/>
</svg>